# xmcd
#
# Track frame offsets:
#	150
#	11903
#	24473
#	37608
#	51889
#	65428
#	79708
#	91563
#	106385
#	122007
#	132613
#	148458
#
# Disc length: 2158 seconds
#
# Revision: 0
# Processed by: cddbd v1.5.2PL0 Copyright (c) Steve Scherf et al.
# Submitted via: audiograbber 1.83.01
#
DISCID=9d086c0c
DTITLE=Anna RF - Flow
DYEAR=2013
DGENRE=World Music
TTITLE0=Raining in the desert
TTITLE1=Revolution
TTITLE2=Dr. Shakshuka
TTITLE3=Gotta moce
TTITLE4=Jump
TTITLE5=On the way to you
TTITLE6=Flow
TTITLE7=Higher
TTITLE8=Desert Blues
TTITLE9=Chance
TTITLE10=Lachin
TTITLE11=Street perfomance
EXTD=
EXTT0=
EXTT1=
EXTT2=
EXTT3=
EXTT4=
EXTT5=
EXTT6=
EXTT7=
EXTT8=
EXTT9=
EXTT10=
EXTT11=
PLAYORDER=
